<svg width="1100" height="720" viewBox="0 0 1100 720" xmlns="http://www.w3.org/2000/svg">

<defs>
  <marker id="arrowBlack" markerWidth="12" markerHeight="12" refX="10" refY="6" orient="auto">
    <path d="M0,0 L12,6 L0,12 Z" fill="#111"/>
  </marker>

  <marker id="arrowBlue" markerWidth="12" markerHeight="12" refX="10" refY="6" orient="auto">
    <path d="M0,0 L12,6 L0,12 Z" fill="#2563eb"/>
  </marker>

  <marker id="arrowRed" markerWidth="12" markerHeight="12" refX="10" refY="6" orient="auto">
    <path d="M0,0 L12,6 L0,12 Z" fill="#dc2626"/>
  </marker>
</defs>

<rect width="100%" height="100%" fill="white"/>

<!-- TITULO -->
<text x="300" y="42" font-size="34" font-family="Arial" font-weight="bold" fill="#111">
Vector A por Componentes
</text>

<!-- ORIGEN -->
<circle cx="320" cy="520" r="5" fill="#111"/>

<!-- EJE X -->
<line x1="320" y1="520" x2="780" y2="520"
stroke="#111" stroke-width="2"
marker-end="url(#arrowBlack)"/>
<text x="800" y="528" font-size="30" fill="#111">x</text>

<!-- EJE Z -->
<line x1="320" y1="520" x2="320" y2="150"
stroke="#111" stroke-width="2"
marker-end="url(#arrowBlack)"/>
<text x="332" y="135" font-size="30" fill="#111">z</text>

<!-- EJE Y -->
<line x1="320" y1="520" x2="120" y2="670"
stroke="#111" stroke-width="2"
marker-end="url(#arrowBlack)"/>
<text x="98" y="692" font-size="30" fill="#111">y</text>

<!-- VECTOR A -->
<line x1="320" y1="520" x2="610" y2="300"
stroke="#dc2626" stroke-width="2"
marker-end="url(#arrowRed)"/>
<text x="470" y="395" font-size="30" fill="#dc2626">A</text>

<!-- AX -->
<line x1="320" y1="520" x2="610" y2="520"
stroke="#2563eb" stroke-width="2"
marker-end="url(#arrowBlue)"/>
<text x="450" y="550" font-size="28" fill="#2563eb">Ax = 6</text>

<!-- AZ -->
<line x1="610" y1="520" x2="610" y2="300"
stroke="#16a34a" stroke-width="2"
marker-end="url(#arrowBlack)"/>
<text x="625" y="420" font-size="28" fill="#16a34a">Az = 5</text>

<!-- AY -->
<line x1="320" y1="520" x2="230" y2="590"
stroke="#7c3aed" stroke-width="2"
marker-end="url(#arrowBlack)"/>
<text x="215" y="548" font-size="28" fill="#7c3aed">Ay = 5</text>

<!-- GUÍAS -->
<line x1="610" y1="300" x2="610" y2="520"
stroke="#999" stroke-width="1.5" stroke-dasharray="6 6"/>

<line x1="230" y1="590" x2="610" y2="590"
stroke="#999" stroke-width="1.5" stroke-dasharray="6 6"/>

<!-- FORMULA -->
<text x="760" y="250" font-size="28" fill="#111">
A = Axî + Ayĵ + Azk̂
</text>

<text x="760" y="310" font-size="28" fill="#111">
A = 6î + 5ĵ + 5k̂
</text>

<!-- ETIQUETAS -->
<text x="840" y="430" font-size="24" fill="#2563eb">Azul → componente x</text>
<text x="840" y="470" font-size="24" fill="#7c3aed">Morado → componente y</text>
<text x="840" y="510" font-size="24" fill="#16a34a">Verde → componente z</text>
<text x="840" y="550" font-size="24" fill="#dc2626">Rojo → vector A</text>

</svg>
