<svg width="1200" height="780" viewBox="0 0 1200 780" xmlns="http://www.w3.org/2000/svg">

<defs>
  <marker id="arrowRed" markerWidth="12" markerHeight="12" refX="10" refY="6" orient="auto">
    <path d="M0,0 L12,6 L0,12 Z" fill="#dc2626"/>
  </marker>

  <marker id="arrowBlue" markerWidth="12" markerHeight="12" refX="10" refY="6" orient="auto">
    <path d="M0,0 L12,6 L0,12 Z" fill="#2563eb"/>
  </marker>

  <marker id="arrowGreen" markerWidth="12" markerHeight="12" refX="10" refY="6" orient="auto">
    <path d="M0,0 L12,6 L0,12 Z" fill="#16a34a"/>
  </marker>
</defs>

<rect width="100%" height="100%" fill="white"/>

<!-- TITULO -->
<text x="215" y="42" font-size="34" font-family="Arial" font-weight="bold" fill="#111">
Resta por Método del Paralelogramo
</text>

<!-- ENUNCIADO -->
<text x="70" y="95" font-size="24" fill="#111">
Dados A = 8 u y B = 6 u con ángulo θ = 60°. Hallar R = A - B
</text>

<text x="70" y="130" font-size="24" fill="#111">
Se utiliza: A - B = A + (-B)
</text>

<!-- ORIGEN -->
<circle cx="260" cy="420" r="5" fill="#111"/>

<!-- VECTOR A -->
<line x1="260" y1="420" x2="560" y2="420"
stroke="#dc2626" stroke-width="2"
marker-end="url(#arrowRed)"/>
<text x="405" y="395" font-size="28" fill="#dc2626">A = 8</text>

<!-- VECTOR -B -->
<line x1="260" y1="420" x2="430" y2="660"
stroke="#2563eb" stroke-width="2"
marker-end="url(#arrowBlue)"/>
<text x="315" y="525" font-size="28" fill="#2563eb">-B = 6</text>

<!-- PARALELAS -->
<line x1="560" y1="420" x2="730" y2="660"
stroke="#2563eb" stroke-width="2"
stroke-dasharray="8 6"/>

<line x1="430" y1="660" x2="730" y2="660"
stroke="#dc2626" stroke-width="2"
stroke-dasharray="8 6"/>

<!-- RESULTANTE -->
<line x1="260" y1="420" x2="730" y2="660"
stroke="#16a34a" stroke-width="3"
marker-end="url(#arrowGreen)"/>
<text x="500" y="555" font-size="28" fill="#16a34a">R = A - B</text>

<!-- ANGULO -->
<path d="M340 420 A80 80 0 0 0 315 480"
fill="none" stroke="#666" stroke-width="2"/>
<text x="355" y="485" font-size="26" fill="#444">60°</text>

<!-- SOLUCIÓN -->
<text x="850" y="250" font-size="24" fill="#111">
R = √(A² + B² - 2AB cosθ)
</text>

<text x="850" y="310" font-size="24" fill="#111">
R = √(8² + 6² - 2·8·6·cos60°)
</text>

<text x="850" y="370" font-size="24" fill="#111">
R = √(64 + 36 - 48)
</text>

<text x="850" y="430" font-size="28" fill="#16a34a">
R = √52 = 7.21 u
</text>

<!-- LEYENDA -->
<text x="850" y="560" font-size="24" fill="#dc2626">Rojo → Vector A</text>
<text x="850" y="600" font-size="24" fill="#2563eb">Azul → Vector -B</text>
<text x="850" y="640" font-size="24" fill="#16a34a">Verde → Resultante</text>

</svg>
