<svg width="1200" height="760" viewBox="0 0 1200 760" xmlns="http://www.w3.org/2000/svg">

<defs>
  <marker id="arrowBlack" markerWidth="12" markerHeight="12" refX="10" refY="6" orient="auto">
    <path d="M0,0 L12,6 L0,12 Z" fill="#111"/>
  </marker>

  <marker id="arrowRed" markerWidth="12" markerHeight="12" refX="10" refY="6" orient="auto">
    <path d="M0,0 L12,6 L0,12 Z" fill="#dc2626"/>
  </marker>

  <marker id="arrowBlue" markerWidth="12" markerHeight="12" refX="10" refY="6" orient="auto">
    <path d="M0,0 L12,6 L0,12 Z" fill="#2563eb"/>
  </marker>

  <marker id="arrowGreen" markerWidth="12" markerHeight="12" refX="10" refY="6" orient="auto">
    <path d="M0,0 L12,6 L0,12 Z" fill="#16a34a"/>
  </marker>
</defs>

<rect width="100%" height="100%" fill="white"/>

<!-- TITULO -->
<text x="285" y="42" font-size="34" font-family="Arial" font-weight="bold" fill="#111">
Ejercicio 2 - Resta de Vectores
</text>

<!-- ORIGEN -->
<circle cx="320" cy="560" r="5" fill="#111"/>

<!-- EJES -->
<line x1="320" y1="560" x2="820" y2="560"
stroke="#111" stroke-width="2"
marker-end="url(#arrowBlack)"/>
<text x="840" y="568" font-size="30">x</text>

<line x1="320" y1="560" x2="320" y2="150"
stroke="#111" stroke-width="2"
marker-end="url(#arrowBlack)"/>
<text x="332" y="135" font-size="30">z</text>

<line x1="320" y1="560" x2="120" y2="700"
stroke="#111" stroke-width="2"
marker-end="url(#arrowBlack)"/>
<text x="95" y="722" font-size="30">y</text>

<!-- VECTOR A -->
<line x1="320" y1="560" x2="500" y2="420"
stroke="#dc2626" stroke-width="2"
marker-end="url(#arrowRed)"/>
<text x="420" y="485" font-size="28" fill="#dc2626">A</text>

<!-- VECTOR B -->
<line x1="320" y1="560" x2="410" y2="490"
stroke="#2563eb" stroke-width="2"
marker-end="url(#arrowBlue)"/>
<text x="355" y="545" font-size="28" fill="#2563eb">B</text>

<!-- RESULTANTE -->
<line x1="320" y1="560" x2="430" y2="455"
stroke="#16a34a" stroke-width="2"
marker-end="url(#arrowGreen)"/>
<text x="445" y="445" font-size="28" fill="#16a34a">R = A - B</text>

<!-- FORMULAS -->
<text x="870" y="210" font-size="24" fill="#dc2626">
A = 2î + 4ĵ - 2k̂
</text>

<text x="870" y="260" font-size="24" fill="#2563eb">
B = î + 2ĵ + 0k̂
</text>

<text x="870" y="340" font-size="24" fill="#111">
R = A - B
</text>

<text x="870" y="390" font-size="24" fill="#111">
R = (2-1)î + (4-2)ĵ + (-2-0)k̂
</text>

<text x="870" y="450" font-size="24" fill="#16a34a">
R = î + 2ĵ - 2k̂
</text>

<!-- ETIQUETAS -->
<text x="870" y="560" font-size="24" fill="#dc2626">Rojo → Vector A</text>
<text x="870" y="600" font-size="24" fill="#2563eb">Azul → Vector B</text>
<text x="870" y="640" font-size="24" fill="#16a34a">Verde → Resultante</text>

</svg>
